<svg width="278" height="68" viewBox="0 0 278 68" fill="none" xmlns="http://www.w3.org/2000/svg">
<path d="M27.1465 48.66C30.2185 48.9 32.7265 49.644 34.6705 50.892C36.6385 52.116 37.6225 54.108 37.6225 56.868C37.6225 59.94 36.0505 62.448 32.9065 64.392C29.7625 66.336 24.9625 67.308 18.5065 67.308C12.4345 67.308 7.85047 66.42 4.75447 64.644C1.65847 62.892 0.110469 60.492 0.110469 57.444C0.110469 56.484 0.218469 55.632 0.434469 54.888C0.674469 54.168 0.938469 53.58 1.22647 53.124L7.05847 53.988C6.86647 54.252 6.67447 54.648 6.48247 55.176C6.31447 55.728 6.23047 56.364 6.23047 57.084C6.23047 59.004 7.32247 60.348 9.50647 61.116C11.6905 61.908 14.7865 62.304 18.7945 62.304C23.2825 62.304 26.5825 61.848 28.6945 60.936C30.8065 60.024 31.8625 58.788 31.8625 57.228C31.8625 55.668 31.2025 54.696 29.8825 54.312C28.5865 53.952 26.9785 53.7 25.0585 53.556L10.5145 52.476C8.09047 52.284 6.11047 51.54 4.57447 50.244C3.06247 48.924 2.30647 47.328 2.30647 45.456C2.30647 43.992 2.73847 42.636 3.60247 41.388C4.49047 40.116 5.37847 39.216 6.26647 38.688C3.09847 35.904 1.51447 32.232 1.51447 27.672C1.51447 24.744 2.22247 22.116 3.63847 19.788C5.07847 17.436 7.07047 15.588 9.61447 14.244C12.1585 12.876 15.0745 12.192 18.3625 12.192C21.4825 12.192 24.1825 12.768 26.4625 13.92C28.7665 15.072 30.5305 16.452 31.7545 18.06L32.4385 12.768H38.1985L35.8225 27.816C35.3905 30.624 34.4905 33.168 33.1225 35.448C31.7545 37.704 29.8825 39.504 27.5065 40.848C25.1545 42.168 22.2385 42.828 18.7585 42.828C15.6385 42.828 12.8425 42.3 10.3705 41.244C9.89047 41.604 9.44647 42.048 9.03847 42.576C8.65447 43.104 8.46247 43.68 8.46247 44.304C8.46247 45.192 8.81047 45.924 9.50647 46.5C10.2025 47.052 11.5825 47.412 13.6465 47.58L27.1465 48.66ZM18.7225 37.356C22.2265 37.356 24.9625 36.504 26.9305 34.8C28.9225 33.096 29.9185 30.672 29.9185 27.528C29.9185 24.504 28.9225 22.104 26.9305 20.328C24.9385 18.552 22.2145 17.664 18.7585 17.664C15.4465 17.664 12.7465 18.576 10.6585 20.4C8.57047 22.224 7.52647 24.636 7.52647 27.636C7.52647 30.684 8.52247 33.072 10.5145 34.8C12.5065 36.504 15.2425 37.356 18.7225 37.356ZM58.1413 51.72C53.7733 51.72 50.2693 50.712 47.6293 48.696C44.9893 46.656 43.6693 43.836 43.6693 40.236C43.6693 36.492 45.0973 33.672 47.9533 31.776C50.8093 29.856 54.5893 28.668 59.2933 28.212C63.9973 27.732 67.3453 27.264 69.3373 26.808C71.3293 26.328 72.3253 25.56 72.3253 24.504V24.396C72.3253 22.188 71.4253 20.544 69.6253 19.464C67.8253 18.36 65.2213 17.808 61.8133 17.808C58.2613 17.808 55.5013 18.432 53.5333 19.68C51.5653 20.904 50.5813 22.896 50.5813 25.656H44.5333C44.5333 22.8 45.2653 20.376 46.7293 18.384C48.1933 16.368 50.2213 14.832 52.8133 13.776C55.4293 12.72 58.4413 12.192 61.8493 12.192C64.9693 12.192 67.7773 12.672 70.2733 13.632C72.7933 14.568 74.7853 15.972 76.2493 17.844C77.7373 19.692 78.4813 21.984 78.4813 24.72V43.8C78.4813 44.64 78.5173 45.456 78.5893 46.248C78.6613 47.04 78.7813 47.736 78.9493 48.336C79.1653 49.056 79.4053 49.644 79.6693 50.1C79.9333 50.532 80.1493 50.832 80.3173 51H74.1613C73.8013 50.64 73.3933 49.836 72.9373 48.588C72.7453 48.06 72.6013 47.352 72.5053 46.464C71.1853 48.048 69.3013 49.32 66.8533 50.28C64.4053 51.24 61.5013 51.72 58.1413 51.72ZM59.1133 46.212C61.5853 46.212 63.8173 45.84 65.8093 45.096C67.8013 44.328 69.3853 43.2 70.5613 41.712C71.7373 40.224 72.3253 38.376 72.3253 36.168V31.344C70.7893 31.824 69.0133 32.22 66.9973 32.532C64.9813 32.82 62.9053 33.06 60.7693 33.252C57.1453 33.588 54.4093 34.224 52.5613 35.16C50.7373 36.096 49.8253 37.668 49.8253 39.876C49.8253 44.1 52.9213 46.212 59.1133 46.212ZM102.772 51.684C100.036 51.684 97.7563 51.216 95.9323 50.28C94.1083 49.32 92.6563 48.084 91.5763 46.572C90.5203 45.06 89.7643 43.428 89.3083 41.676C88.8763 39.9 88.6603 38.196 88.6603 36.564V12.768H94.8163V35.088C94.8163 37.032 95.0803 38.832 95.6083 40.488C96.1603 42.144 97.1083 43.488 98.4523 44.52C99.7963 45.528 101.644 46.032 103.996 46.032C106.204 46.032 108.136 45.372 109.792 44.052C111.448 42.708 112.744 41.04 113.68 39.048C114.616 37.032 115.084 35.028 115.084 33.036V12.768H121.204V51H115.084V45.312C113.692 47.184 111.952 48.72 109.864 49.92C107.776 51.096 105.412 51.684 102.772 51.684ZM146.952 51.576C145.392 51.576 143.88 51.336 142.416 50.856C140.976 50.352 139.8 49.416 138.888 48.048C137.976 46.656 137.52 44.628 137.52 41.964V18.168H128.196V12.768H134.172C135.276 12.768 136.056 12.708 136.512 12.588C136.968 12.444 137.244 12.096 137.34 11.544C137.46 10.968 137.52 10.044 137.52 8.772V0.0959988H143.676V12.768H155.628V18.168H143.676V39.66C143.676 41.7 143.916 43.296 144.396 44.448C144.9 45.6 146.016 46.176 147.744 46.176C148.44 46.176 149.1 46.116 149.724 45.996C150.348 45.876 150.816 45.756 151.128 45.636V50.964C150.72 51.108 150.144 51.24 149.4 51.36C148.68 51.504 147.864 51.576 146.952 51.576ZM175.563 51.72C171.195 51.72 167.691 50.712 165.051 48.696C162.411 46.656 161.091 43.836 161.091 40.236C161.091 36.492 162.519 33.672 165.375 31.776C168.231 29.856 172.011 28.668 176.715 28.212C181.419 27.732 184.767 27.264 186.759 26.808C188.751 26.328 189.747 25.56 189.747 24.504V24.396C189.747 22.188 188.847 20.544 187.047 19.464C185.247 18.36 182.643 17.808 179.235 17.808C175.683 17.808 172.923 18.432 170.955 19.68C168.987 20.904 168.003 22.896 168.003 25.656H161.955C161.955 22.8 162.687 20.376 164.151 18.384C165.615 16.368 167.643 14.832 170.235 13.776C172.851 12.72 175.863 12.192 179.271 12.192C182.391 12.192 185.199 12.672 187.695 13.632C190.215 14.568 192.207 15.972 193.671 17.844C195.159 19.692 195.903 21.984 195.903 24.72V43.8C195.903 44.64 195.939 45.456 196.011 46.248C196.083 47.04 196.203 47.736 196.371 48.336C196.587 49.056 196.827 49.644 197.091 50.1C197.355 50.532 197.571 50.832 197.739 51H191.583C191.223 50.64 190.815 49.836 190.359 48.588C190.167 48.06 190.023 47.352 189.927 46.464C188.607 48.048 186.723 49.32 184.275 50.28C181.827 51.24 178.923 51.72 175.563 51.72ZM176.535 46.212C179.007 46.212 181.239 45.84 183.231 45.096C185.223 44.328 186.807 43.2 187.983 41.712C189.159 40.224 189.747 38.376 189.747 36.168V31.344C188.211 31.824 186.435 32.22 184.419 32.532C182.403 32.82 180.327 33.06 178.191 33.252C174.567 33.588 171.831 34.224 169.983 35.16C168.159 36.096 167.247 37.668 167.247 39.876C167.247 44.1 170.343 46.212 176.535 46.212ZM206.082 51V12.768H212.202V17.664C213.474 16.008 215.046 14.688 216.918 13.704C218.79 12.696 220.902 12.192 223.254 12.192C226.23 12.192 228.642 12.816 230.49 14.064C232.338 15.312 233.682 17.004 234.522 19.14C235.746 17.1 237.378 15.432 239.418 14.136C241.458 12.84 243.846 12.192 246.582 12.192C250.71 12.192 253.83 13.38 255.942 15.756C258.078 18.132 259.146 21.324 259.146 25.332V51H253.026V27.348C253.026 26.412 252.966 25.404 252.846 24.324C252.726 23.244 252.426 22.236 251.946 21.3C251.466 20.34 250.698 19.56 249.642 18.96C248.61 18.336 247.158 18.024 245.286 18.024C242.814 18.024 240.882 18.624 239.49 19.824C238.098 21.024 237.114 22.488 236.538 24.216C235.962 25.944 235.674 27.612 235.674 29.22V51H229.59V27.492C229.59 26.556 229.518 25.548 229.374 24.468C229.254 23.364 228.954 22.332 228.474 21.372C227.994 20.388 227.238 19.584 226.206 18.96C225.198 18.336 223.794 18.024 221.994 18.024C219.57 18.024 217.638 18.636 216.198 19.86C214.758 21.06 213.726 22.56 213.102 24.36C212.502 26.16 212.202 27.96 212.202 29.76V51H206.082ZM273.529 51.936C272.353 51.936 271.357 51.54 270.541 50.748C269.749 49.932 269.353 48.936 269.353 47.76C269.353 46.608 269.749 45.624 270.541 44.808C271.357 43.992 272.353 43.584 273.529 43.584C274.681 43.584 275.665 43.992 276.481 44.808C277.297 45.624 277.705 46.608 277.705 47.76C277.705 48.936 277.297 49.932 276.481 50.748C275.665 51.54 274.681 51.936 273.529 51.936Z" fill="black"/>
<path d="M27.1465 48.66C30.2185 48.9 32.7265 49.644 34.6705 50.892C36.6385 52.116 37.6225 54.108 37.6225 56.868C37.6225 59.94 36.0505 62.448 32.9065 64.392C29.7625 66.336 24.9625 67.308 18.5065 67.308C12.4345 67.308 7.85047 66.42 4.75447 64.644C1.65847 62.892 0.110469 60.492 0.110469 57.444C0.110469 56.484 0.218469 55.632 0.434469 54.888C0.674469 54.168 0.938469 53.58 1.22647 53.124L7.05847 53.988C6.86647 54.252 6.67447 54.648 6.48247 55.176C6.31447 55.728 6.23047 56.364 6.23047 57.084C6.23047 59.004 7.32247 60.348 9.50647 61.116C11.6905 61.908 14.7865 62.304 18.7945 62.304C23.2825 62.304 26.5825 61.848 28.6945 60.936C30.8065 60.024 31.8625 58.788 31.8625 57.228C31.8625 55.668 31.2025 54.696 29.8825 54.312C28.5865 53.952 26.9785 53.7 25.0585 53.556L10.5145 52.476C8.09047 52.284 6.11047 51.54 4.57447 50.244C3.06247 48.924 2.30647 47.328 2.30647 45.456C2.30647 43.992 2.73847 42.636 3.60247 41.388C4.49047 40.116 5.37847 39.216 6.26647 38.688C3.09847 35.904 1.51447 32.232 1.51447 27.672C1.51447 24.744 2.22247 22.116 3.63847 19.788C5.07847 17.436 7.07047 15.588 9.61447 14.244C12.1585 12.876 15.0745 12.192 18.3625 12.192C21.4825 12.192 24.1825 12.768 26.4625 13.92C28.7665 15.072 30.5305 16.452 31.7545 18.06L32.4385 12.768H38.1985L35.8225 27.816C35.3905 30.624 34.4905 33.168 33.1225 35.448C31.7545 37.704 29.8825 39.504 27.5065 40.848C25.1545 42.168 22.2385 42.828 18.7585 42.828C15.6385 42.828 12.8425 42.3 10.3705 41.244C9.89047 41.604 9.44647 42.048 9.03847 42.576C8.65447 43.104 8.46247 43.68 8.46247 44.304C8.46247 45.192 8.81047 45.924 9.50647 46.5C10.2025 47.052 11.5825 47.412 13.6465 47.58L27.1465 48.66ZM18.7225 37.356C22.2265 37.356 24.9625 36.504 26.9305 34.8C28.9225 33.096 29.9185 30.672 29.9185 27.528C29.9185 24.504 28.9225 22.104 26.9305 20.328C24.9385 18.552 22.2145 17.664 18.7585 17.664C15.4465 17.664 12.7465 18.576 10.6585 20.4C8.57047 22.224 7.52647 24.636 7.52647 27.636C7.52647 30.684 8.52247 33.072 10.5145 34.8C12.5065 36.504 15.2425 37.356 18.7225 37.356ZM58.1413 51.72C53.7733 51.72 50.2693 50.712 47.6293 48.696C44.9893 46.656 43.6693 43.836 43.6693 40.236C43.6693 36.492 45.0973 33.672 47.9533 31.776C50.8093 29.856 54.5893 28.668 59.2933 28.212C63.9973 27.732 67.3453 27.264 69.3373 26.808C71.3293 26.328 72.3253 25.56 72.3253 24.504V24.396C72.3253 22.188 71.4253 20.544 69.6253 19.464C67.8253 18.36 65.2213 17.808 61.8133 17.808C58.2613 17.808 55.5013 18.432 53.5333 19.68C51.5653 20.904 50.5813 22.896 50.5813 25.656H44.5333C44.5333 22.8 45.2653 20.376 46.7293 18.384C48.1933 16.368 50.2213 14.832 52.8133 13.776C55.4293 12.72 58.4413 12.192 61.8493 12.192C64.9693 12.192 67.7773 12.672 70.2733 13.632C72.7933 14.568 74.7853 15.972 76.2493 17.844C77.7373 19.692 78.4813 21.984 78.4813 24.72V43.8C78.4813 44.64 78.5173 45.456 78.5893 46.248C78.6613 47.04 78.7813 47.736 78.9493 48.336C79.1653 49.056 79.4053 49.644 79.6693 50.1C79.9333 50.532 80.1493 50.832 80.3173 51H74.1613C73.8013 50.64 73.3933 49.836 72.9373 48.588C72.7453 48.06 72.6013 47.352 72.5053 46.464C71.1853 48.048 69.3013 49.32 66.8533 50.28C64.4053 51.24 61.5013 51.72 58.1413 51.72ZM59.1133 46.212C61.5853 46.212 63.8173 45.84 65.8093 45.096C67.8013 44.328 69.3853 43.2 70.5613 41.712C71.7373 40.224 72.3253 38.376 72.3253 36.168V31.344C70.7893 31.824 69.0133 32.22 66.9973 32.532C64.9813 32.82 62.9053 33.06 60.7693 33.252C57.1453 33.588 54.4093 34.224 52.5613 35.16C50.7373 36.096 49.8253 37.668 49.8253 39.876C49.8253 44.1 52.9213 46.212 59.1133 46.212ZM102.772 51.684C100.036 51.684 97.7563 51.216 95.9323 50.28C94.1083 49.32 92.6563 48.084 91.5763 46.572C90.5203 45.06 89.7643 43.428 89.3083 41.676C88.8763 39.9 88.6603 38.196 88.6603 36.564V12.768H94.8163V35.088C94.8163 37.032 95.0803 38.832 95.6083 40.488C96.1603 42.144 97.1083 43.488 98.4523 44.52C99.7963 45.528 101.644 46.032 103.996 46.032C106.204 46.032 108.136 45.372 109.792 44.052C111.448 42.708 112.744 41.04 113.68 39.048C114.616 37.032 115.084 35.028 115.084 33.036V12.768H121.204V51H115.084V45.312C113.692 47.184 111.952 48.72 109.864 49.92C107.776 51.096 105.412 51.684 102.772 51.684ZM146.952 51.576C145.392 51.576 143.88 51.336 142.416 50.856C140.976 50.352 139.8 49.416 138.888 48.048C137.976 46.656 137.52 44.628 137.52 41.964V18.168H128.196V12.768H134.172C135.276 12.768 136.056 12.708 136.512 12.588C136.968 12.444 137.244 12.096 137.34 11.544C137.46 10.968 137.52 10.044 137.52 8.772V0.0959988H143.676V12.768H155.628V18.168H143.676V39.66C143.676 41.7 143.916 43.296 144.396 44.448C144.9 45.6 146.016 46.176 147.744 46.176C148.44 46.176 149.1 46.116 149.724 45.996C150.348 45.876 150.816 45.756 151.128 45.636V50.964C150.72 51.108 150.144 51.24 149.4 51.36C148.68 51.504 147.864 51.576 146.952 51.576ZM175.563 51.72C171.195 51.72 167.691 50.712 165.051 48.696C162.411 46.656 161.091 43.836 161.091 40.236C161.091 36.492 162.519 33.672 165.375 31.776C168.231 29.856 172.011 28.668 176.715 28.212C181.419 27.732 184.767 27.264 186.759 26.808C188.751 26.328 189.747 25.56 189.747 24.504V24.396C189.747 22.188 188.847 20.544 187.047 19.464C185.247 18.36 182.643 17.808 179.235 17.808C175.683 17.808 172.923 18.432 170.955 19.68C168.987 20.904 168.003 22.896 168.003 25.656H161.955C161.955 22.8 162.687 20.376 164.151 18.384C165.615 16.368 167.643 14.832 170.235 13.776C172.851 12.72 175.863 12.192 179.271 12.192C182.391 12.192 185.199 12.672 187.695 13.632C190.215 14.568 192.207 15.972 193.671 17.844C195.159 19.692 195.903 21.984 195.903 24.72V43.8C195.903 44.64 195.939 45.456 196.011 46.248C196.083 47.04 196.203 47.736 196.371 48.336C196.587 49.056 196.827 49.644 197.091 50.1C197.355 50.532 197.571 50.832 197.739 51H191.583C191.223 50.64 190.815 49.836 190.359 48.588C190.167 48.06 190.023 47.352 189.927 46.464C188.607 48.048 186.723 49.32 184.275 50.28C181.827 51.24 178.923 51.72 175.563 51.72ZM176.535 46.212C179.007 46.212 181.239 45.84 183.231 45.096C185.223 44.328 186.807 43.2 187.983 41.712C189.159 40.224 189.747 38.376 189.747 36.168V31.344C188.211 31.824 186.435 32.22 184.419 32.532C182.403 32.82 180.327 33.06 178.191 33.252C174.567 33.588 171.831 34.224 169.983 35.16C168.159 36.096 167.247 37.668 167.247 39.876C167.247 44.1 170.343 46.212 176.535 46.212ZM206.082 51V12.768H212.202V17.664C213.474 16.008 215.046 14.688 216.918 13.704C218.79 12.696 220.902 12.192 223.254 12.192C226.23 12.192 228.642 12.816 230.49 14.064C232.338 15.312 233.682 17.004 234.522 19.14C235.746 17.1 237.378 15.432 239.418 14.136C241.458 12.84 243.846 12.192 246.582 12.192C250.71 12.192 253.83 13.38 255.942 15.756C258.078 18.132 259.146 21.324 259.146 25.332V51H253.026V27.348C253.026 26.412 252.966 25.404 252.846 24.324C252.726 23.244 252.426 22.236 251.946 21.3C251.466 20.34 250.698 19.56 249.642 18.96C248.61 18.336 247.158 18.024 245.286 18.024C242.814 18.024 240.882 18.624 239.49 19.824C238.098 21.024 237.114 22.488 236.538 24.216C235.962 25.944 235.674 27.612 235.674 29.22V51H229.59V27.492C229.59 26.556 229.518 25.548 229.374 24.468C229.254 23.364 228.954 22.332 228.474 21.372C227.994 20.388 227.238 19.584 226.206 18.96C225.198 18.336 223.794 18.024 221.994 18.024C219.57 18.024 217.638 18.636 216.198 19.86C214.758 21.06 213.726 22.56 213.102 24.36C212.502 26.16 212.202 27.96 212.202 29.76V51H206.082ZM273.529 51.936C272.353 51.936 271.357 51.54 270.541 50.748C269.749 49.932 269.353 48.936 269.353 47.76C269.353 46.608 269.749 45.624 270.541 44.808C271.357 43.992 272.353 43.584 273.529 43.584C274.681 43.584 275.665 43.992 276.481 44.808C277.297 45.624 277.705 46.608 277.705 47.76C277.705 48.936 277.297 49.932 276.481 50.748C275.665 51.54 274.681 51.936 273.529 51.936Z" fill="white"/>
</svg>
