<svg width="280" height="70" viewBox="0 0 280 70" fill="none" xmlns="http://www.w3.org/2000/svg">
<path d="M28.1465 49.66C31.2185 49.9 33.7265 50.644 35.6705 51.892C37.6385 53.116 38.6225 55.108 38.6225 57.868C38.6225 60.94 37.0505 63.448 33.9065 65.392C30.7625 67.336 25.9625 68.308 19.5065 68.308C13.4345 68.308 8.85047 67.42 5.75447 65.644C2.65847 63.892 1.11047 61.492 1.11047 58.444C1.11047 57.484 1.21847 56.632 1.43447 55.888C1.67447 55.168 1.93847 54.58 2.22647 54.124L8.05847 54.988C7.86647 55.252 7.67447 55.648 7.48247 56.176C7.31447 56.728 7.23047 57.364 7.23047 58.084C7.23047 60.004 8.32247 61.348 10.5065 62.116C12.6905 62.908 15.7865 63.304 19.7945 63.304C24.2825 63.304 27.5825 62.848 29.6945 61.936C31.8065 61.024 32.8625 59.788 32.8625 58.228C32.8625 56.668 32.2025 55.696 30.8825 55.312C29.5865 54.952 27.9785 54.7 26.0585 54.556L11.5145 53.476C9.09047 53.284 7.11047 52.54 5.57447 51.244C4.06247 49.924 3.30647 48.328 3.30647 46.456C3.30647 44.992 3.73847 43.636 4.60247 42.388C5.49047 41.116 6.37847 40.216 7.26647 39.688C4.09847 36.904 2.51447 33.232 2.51447 28.672C2.51447 25.744 3.22247 23.116 4.63847 20.788C6.07847 18.436 8.07047 16.588 10.6145 15.244C13.1585 13.876 16.0745 13.192 19.3625 13.192C22.4825 13.192 25.1825 13.768 27.4625 14.92C29.7665 16.072 31.5305 17.452 32.7545 19.06L33.4385 13.768H39.1985L36.8225 28.816C36.3905 31.624 35.4905 34.168 34.1225 36.448C32.7545 38.704 30.8825 40.504 28.5065 41.848C26.1545 43.168 23.2385 43.828 19.7585 43.828C16.6385 43.828 13.8425 43.3 11.3705 42.244C10.8905 42.604 10.4465 43.048 10.0385 43.576C9.65447 44.104 9.46247 44.68 9.46247 45.304C9.46247 46.192 9.81047 46.924 10.5065 47.5C11.2025 48.052 12.5825 48.412 14.6465 48.58L28.1465 49.66ZM19.7225 38.356C23.2265 38.356 25.9625 37.504 27.9305 35.8C29.9225 34.096 30.9185 31.672 30.9185 28.528C30.9185 25.504 29.9225 23.104 27.9305 21.328C25.9385 19.552 23.2145 18.664 19.7585 18.664C16.4465 18.664 13.7465 19.576 11.6585 21.4C9.57047 23.224 8.52647 25.636 8.52647 28.636C8.52647 31.684 9.52247 34.072 11.5145 35.8C13.5065 37.504 16.2425 38.356 19.7225 38.356ZM59.1413 52.72C54.7733 52.72 51.2693 51.712 48.6293 49.696C45.9893 47.656 44.6693 44.836 44.6693 41.236C44.6693 37.492 46.0973 34.672 48.9533 32.776C51.8093 30.856 55.5893 29.668 60.2933 29.212C64.9973 28.732 68.3453 28.264 70.3373 27.808C72.3293 27.328 73.3253 26.56 73.3253 25.504V25.396C73.3253 23.188 72.4253 21.544 70.6253 20.464C68.8253 19.36 66.2213 18.808 62.8133 18.808C59.2613 18.808 56.5013 19.432 54.5333 20.68C52.5653 21.904 51.5813 23.896 51.5813 26.656H45.5333C45.5333 23.8 46.2653 21.376 47.7293 19.384C49.1933 17.368 51.2213 15.832 53.8133 14.776C56.4293 13.72 59.4413 13.192 62.8493 13.192C65.9693 13.192 68.7773 13.672 71.2733 14.632C73.7933 15.568 75.7853 16.972 77.2493 18.844C78.7373 20.692 79.4813 22.984 79.4813 25.72V44.8C79.4813 45.64 79.5173 46.456 79.5893 47.248C79.6613 48.04 79.7813 48.736 79.9493 49.336C80.1653 50.056 80.4053 50.644 80.6693 51.1C80.9333 51.532 81.1493 51.832 81.3173 52H75.1613C74.8013 51.64 74.3933 50.836 73.9373 49.588C73.7453 49.06 73.6013 48.352 73.5053 47.464C72.1853 49.048 70.3013 50.32 67.8533 51.28C65.4053 52.24 62.5013 52.72 59.1413 52.72ZM60.1133 47.212C62.5853 47.212 64.8173 46.84 66.8093 46.096C68.8013 45.328 70.3853 44.2 71.5613 42.712C72.7373 41.224 73.3253 39.376 73.3253 37.168V32.344C71.7893 32.824 70.0133 33.22 67.9973 33.532C65.9813 33.82 63.9053 34.06 61.7693 34.252C58.1453 34.588 55.4093 35.224 53.5613 36.16C51.7373 37.096 50.8253 38.668 50.8253 40.876C50.8253 45.1 53.9213 47.212 60.1133 47.212ZM103.772 52.684C101.036 52.684 98.7563 52.216 96.9323 51.28C95.1083 50.32 93.6563 49.084 92.5763 47.572C91.5203 46.06 90.7643 44.428 90.3083 42.676C89.8763 40.9 89.6603 39.196 89.6603 37.564V13.768H95.8163V36.088C95.8163 38.032 96.0803 39.832 96.6083 41.488C97.1603 43.144 98.1083 44.488 99.4523 45.52C100.796 46.528 102.644 47.032 104.996 47.032C107.204 47.032 109.136 46.372 110.792 45.052C112.448 43.708 113.744 42.04 114.68 40.048C115.616 38.032 116.084 36.028 116.084 34.036V13.768H122.204V52H116.084V46.312C114.692 48.184 112.952 49.72 110.864 50.92C108.776 52.096 106.412 52.684 103.772 52.684ZM147.952 52.576C146.392 52.576 144.88 52.336 143.416 51.856C141.976 51.352 140.8 50.416 139.888 49.048C138.976 47.656 138.52 45.628 138.52 42.964V19.168H129.196V13.768H135.172C136.276 13.768 137.056 13.708 137.512 13.588C137.968 13.444 138.244 13.096 138.34 12.544C138.46 11.968 138.52 11.044 138.52 9.772V1.096H144.676V13.768H156.628V19.168H144.676V40.66C144.676 42.7 144.916 44.296 145.396 45.448C145.9 46.6 147.016 47.176 148.744 47.176C149.44 47.176 150.1 47.116 150.724 46.996C151.348 46.876 151.816 46.756 152.128 46.636V51.964C151.72 52.108 151.144 52.24 150.4 52.36C149.68 52.504 148.864 52.576 147.952 52.576ZM176.563 52.72C172.195 52.72 168.691 51.712 166.051 49.696C163.411 47.656 162.091 44.836 162.091 41.236C162.091 37.492 163.519 34.672 166.375 32.776C169.231 30.856 173.011 29.668 177.715 29.212C182.419 28.732 185.767 28.264 187.759 27.808C189.751 27.328 190.747 26.56 190.747 25.504V25.396C190.747 23.188 189.847 21.544 188.047 20.464C186.247 19.36 183.643 18.808 180.235 18.808C176.683 18.808 173.923 19.432 171.955 20.68C169.987 21.904 169.003 23.896 169.003 26.656H162.955C162.955 23.8 163.687 21.376 165.151 19.384C166.615 17.368 168.643 15.832 171.235 14.776C173.851 13.72 176.863 13.192 180.271 13.192C183.391 13.192 186.199 13.672 188.695 14.632C191.215 15.568 193.207 16.972 194.671 18.844C196.159 20.692 196.903 22.984 196.903 25.72V44.8C196.903 45.64 196.939 46.456 197.011 47.248C197.083 48.04 197.203 48.736 197.371 49.336C197.587 50.056 197.827 50.644 198.091 51.1C198.355 51.532 198.571 51.832 198.739 52H192.583C192.223 51.64 191.815 50.836 191.359 49.588C191.167 49.06 191.023 48.352 190.927 47.464C189.607 49.048 187.723 50.32 185.275 51.28C182.827 52.24 179.923 52.72 176.563 52.72ZM177.535 47.212C180.007 47.212 182.239 46.84 184.231 46.096C186.223 45.328 187.807 44.2 188.983 42.712C190.159 41.224 190.747 39.376 190.747 37.168V32.344C189.211 32.824 187.435 33.22 185.419 33.532C183.403 33.82 181.327 34.06 179.191 34.252C175.567 34.588 172.831 35.224 170.983 36.16C169.159 37.096 168.247 38.668 168.247 40.876C168.247 45.1 171.343 47.212 177.535 47.212ZM207.082 52V13.768H213.202V18.664C214.474 17.008 216.046 15.688 217.918 14.704C219.79 13.696 221.902 13.192 224.254 13.192C227.23 13.192 229.642 13.816 231.49 15.064C233.338 16.312 234.682 18.004 235.522 20.14C236.746 18.1 238.378 16.432 240.418 15.136C242.458 13.84 244.846 13.192 247.582 13.192C251.71 13.192 254.83 14.38 256.942 16.756C259.078 19.132 260.146 22.324 260.146 26.332V52H254.026V28.348C254.026 27.412 253.966 26.404 253.846 25.324C253.726 24.244 253.426 23.236 252.946 22.3C252.466 21.34 251.698 20.56 250.642 19.96C249.61 19.336 248.158 19.024 246.286 19.024C243.814 19.024 241.882 19.624 240.49 20.824C239.098 22.024 238.114 23.488 237.538 25.216C236.962 26.944 236.674 28.612 236.674 30.22V52H230.59V28.492C230.59 27.556 230.518 26.548 230.374 25.468C230.254 24.364 229.954 23.332 229.474 22.372C228.994 21.388 228.238 20.584 227.206 19.96C226.198 19.336 224.794 19.024 222.994 19.024C220.57 19.024 218.638 19.636 217.198 20.86C215.758 22.06 214.726 23.56 214.102 25.36C213.502 27.16 213.202 28.96 213.202 30.76V52H207.082ZM274.529 52.936C273.353 52.936 272.357 52.54 271.541 51.748C270.749 50.932 270.353 49.936 270.353 48.76C270.353 47.608 270.749 46.624 271.541 45.808C272.357 44.992 273.353 44.584 274.529 44.584C275.681 44.584 276.665 44.992 277.481 45.808C278.297 46.624 278.705 47.608 278.705 48.76C278.705 49.936 278.297 50.932 277.481 51.748C276.665 52.54 275.681 52.936 274.529 52.936Z" fill="black"/>
<path d="M28.1465 49.66C31.2185 49.9 33.7265 50.644 35.6705 51.892C37.6385 53.116 38.6225 55.108 38.6225 57.868C38.6225 60.94 37.0505 63.448 33.9065 65.392C30.7625 67.336 25.9625 68.308 19.5065 68.308C13.4345 68.308 8.85047 67.42 5.75447 65.644C2.65847 63.892 1.11047 61.492 1.11047 58.444C1.11047 57.484 1.21847 56.632 1.43447 55.888C1.67447 55.168 1.93847 54.58 2.22647 54.124L8.05847 54.988C7.86647 55.252 7.67447 55.648 7.48247 56.176C7.31447 56.728 7.23047 57.364 7.23047 58.084C7.23047 60.004 8.32247 61.348 10.5065 62.116C12.6905 62.908 15.7865 63.304 19.7945 63.304C24.2825 63.304 27.5825 62.848 29.6945 61.936C31.8065 61.024 32.8625 59.788 32.8625 58.228C32.8625 56.668 32.2025 55.696 30.8825 55.312C29.5865 54.952 27.9785 54.7 26.0585 54.556L11.5145 53.476C9.09047 53.284 7.11047 52.54 5.57447 51.244C4.06247 49.924 3.30647 48.328 3.30647 46.456C3.30647 44.992 3.73847 43.636 4.60247 42.388C5.49047 41.116 6.37847 40.216 7.26647 39.688C4.09847 36.904 2.51447 33.232 2.51447 28.672C2.51447 25.744 3.22247 23.116 4.63847 20.788C6.07847 18.436 8.07047 16.588 10.6145 15.244C13.1585 13.876 16.0745 13.192 19.3625 13.192C22.4825 13.192 25.1825 13.768 27.4625 14.92C29.7665 16.072 31.5305 17.452 32.7545 19.06L33.4385 13.768H39.1985L36.8225 28.816C36.3905 31.624 35.4905 34.168 34.1225 36.448C32.7545 38.704 30.8825 40.504 28.5065 41.848C26.1545 43.168 23.2385 43.828 19.7585 43.828C16.6385 43.828 13.8425 43.3 11.3705 42.244C10.8905 42.604 10.4465 43.048 10.0385 43.576C9.65447 44.104 9.46247 44.68 9.46247 45.304C9.46247 46.192 9.81047 46.924 10.5065 47.5C11.2025 48.052 12.5825 48.412 14.6465 48.58L28.1465 49.66ZM19.7225 38.356C23.2265 38.356 25.9625 37.504 27.9305 35.8C29.9225 34.096 30.9185 31.672 30.9185 28.528C30.9185 25.504 29.9225 23.104 27.9305 21.328C25.9385 19.552 23.2145 18.664 19.7585 18.664C16.4465 18.664 13.7465 19.576 11.6585 21.4C9.57047 23.224 8.52647 25.636 8.52647 28.636C8.52647 31.684 9.52247 34.072 11.5145 35.8C13.5065 37.504 16.2425 38.356 19.7225 38.356ZM59.1413 52.72C54.7733 52.72 51.2693 51.712 48.6293 49.696C45.9893 47.656 44.6693 44.836 44.6693 41.236C44.6693 37.492 46.0973 34.672 48.9533 32.776C51.8093 30.856 55.5893 29.668 60.2933 29.212C64.9973 28.732 68.3453 28.264 70.3373 27.808C72.3293 27.328 73.3253 26.56 73.3253 25.504V25.396C73.3253 23.188 72.4253 21.544 70.6253 20.464C68.8253 19.36 66.2213 18.808 62.8133 18.808C59.2613 18.808 56.5013 19.432 54.5333 20.68C52.5653 21.904 51.5813 23.896 51.5813 26.656H45.5333C45.5333 23.8 46.2653 21.376 47.7293 19.384C49.1933 17.368 51.2213 15.832 53.8133 14.776C56.4293 13.72 59.4413 13.192 62.8493 13.192C65.9693 13.192 68.7773 13.672 71.2733 14.632C73.7933 15.568 75.7853 16.972 77.2493 18.844C78.7373 20.692 79.4813 22.984 79.4813 25.72V44.8C79.4813 45.64 79.5173 46.456 79.5893 47.248C79.6613 48.04 79.7813 48.736 79.9493 49.336C80.1653 50.056 80.4053 50.644 80.6693 51.1C80.9333 51.532 81.1493 51.832 81.3173 52H75.1613C74.8013 51.64 74.3933 50.836 73.9373 49.588C73.7453 49.06 73.6013 48.352 73.5053 47.464C72.1853 49.048 70.3013 50.32 67.8533 51.28C65.4053 52.24 62.5013 52.72 59.1413 52.72ZM60.1133 47.212C62.5853 47.212 64.8173 46.84 66.8093 46.096C68.8013 45.328 70.3853 44.2 71.5613 42.712C72.7373 41.224 73.3253 39.376 73.3253 37.168V32.344C71.7893 32.824 70.0133 33.22 67.9973 33.532C65.9813 33.82 63.9053 34.06 61.7693 34.252C58.1453 34.588 55.4093 35.224 53.5613 36.16C51.7373 37.096 50.8253 38.668 50.8253 40.876C50.8253 45.1 53.9213 47.212 60.1133 47.212ZM103.772 52.684C101.036 52.684 98.7563 52.216 96.9323 51.28C95.1083 50.32 93.6563 49.084 92.5763 47.572C91.5203 46.06 90.7643 44.428 90.3083 42.676C89.8763 40.9 89.6603 39.196 89.6603 37.564V13.768H95.8163V36.088C95.8163 38.032 96.0803 39.832 96.6083 41.488C97.1603 43.144 98.1083 44.488 99.4523 45.52C100.796 46.528 102.644 47.032 104.996 47.032C107.204 47.032 109.136 46.372 110.792 45.052C112.448 43.708 113.744 42.04 114.68 40.048C115.616 38.032 116.084 36.028 116.084 34.036V13.768H122.204V52H116.084V46.312C114.692 48.184 112.952 49.72 110.864 50.92C108.776 52.096 106.412 52.684 103.772 52.684ZM147.952 52.576C146.392 52.576 144.88 52.336 143.416 51.856C141.976 51.352 140.8 50.416 139.888 49.048C138.976 47.656 138.52 45.628 138.52 42.964V19.168H129.196V13.768H135.172C136.276 13.768 137.056 13.708 137.512 13.588C137.968 13.444 138.244 13.096 138.34 12.544C138.46 11.968 138.52 11.044 138.52 9.772V1.096H144.676V13.768H156.628V19.168H144.676V40.66C144.676 42.7 144.916 44.296 145.396 45.448C145.9 46.6 147.016 47.176 148.744 47.176C149.44 47.176 150.1 47.116 150.724 46.996C151.348 46.876 151.816 46.756 152.128 46.636V51.964C151.72 52.108 151.144 52.24 150.4 52.36C149.68 52.504 148.864 52.576 147.952 52.576ZM176.563 52.72C172.195 52.72 168.691 51.712 166.051 49.696C163.411 47.656 162.091 44.836 162.091 41.236C162.091 37.492 163.519 34.672 166.375 32.776C169.231 30.856 173.011 29.668 177.715 29.212C182.419 28.732 185.767 28.264 187.759 27.808C189.751 27.328 190.747 26.56 190.747 25.504V25.396C190.747 23.188 189.847 21.544 188.047 20.464C186.247 19.36 183.643 18.808 180.235 18.808C176.683 18.808 173.923 19.432 171.955 20.68C169.987 21.904 169.003 23.896 169.003 26.656H162.955C162.955 23.8 163.687 21.376 165.151 19.384C166.615 17.368 168.643 15.832 171.235 14.776C173.851 13.72 176.863 13.192 180.271 13.192C183.391 13.192 186.199 13.672 188.695 14.632C191.215 15.568 193.207 16.972 194.671 18.844C196.159 20.692 196.903 22.984 196.903 25.72V44.8C196.903 45.64 196.939 46.456 197.011 47.248C197.083 48.04 197.203 48.736 197.371 49.336C197.587 50.056 197.827 50.644 198.091 51.1C198.355 51.532 198.571 51.832 198.739 52H192.583C192.223 51.64 191.815 50.836 191.359 49.588C191.167 49.06 191.023 48.352 190.927 47.464C189.607 49.048 187.723 50.32 185.275 51.28C182.827 52.24 179.923 52.72 176.563 52.72ZM177.535 47.212C180.007 47.212 182.239 46.84 184.231 46.096C186.223 45.328 187.807 44.2 188.983 42.712C190.159 41.224 190.747 39.376 190.747 37.168V32.344C189.211 32.824 187.435 33.22 185.419 33.532C183.403 33.82 181.327 34.06 179.191 34.252C175.567 34.588 172.831 35.224 170.983 36.16C169.159 37.096 168.247 38.668 168.247 40.876C168.247 45.1 171.343 47.212 177.535 47.212ZM207.082 52V13.768H213.202V18.664C214.474 17.008 216.046 15.688 217.918 14.704C219.79 13.696 221.902 13.192 224.254 13.192C227.23 13.192 229.642 13.816 231.49 15.064C233.338 16.312 234.682 18.004 235.522 20.14C236.746 18.1 238.378 16.432 240.418 15.136C242.458 13.84 244.846 13.192 247.582 13.192C251.71 13.192 254.83 14.38 256.942 16.756C259.078 19.132 260.146 22.324 260.146 26.332V52H254.026V28.348C254.026 27.412 253.966 26.404 253.846 25.324C253.726 24.244 253.426 23.236 252.946 22.3C252.466 21.34 251.698 20.56 250.642 19.96C249.61 19.336 248.158 19.024 246.286 19.024C243.814 19.024 241.882 19.624 240.49 20.824C239.098 22.024 238.114 23.488 237.538 25.216C236.962 26.944 236.674 28.612 236.674 30.22V52H230.59V28.492C230.59 27.556 230.518 26.548 230.374 25.468C230.254 24.364 229.954 23.332 229.474 22.372C228.994 21.388 228.238 20.584 227.206 19.96C226.198 19.336 224.794 19.024 222.994 19.024C220.57 19.024 218.638 19.636 217.198 20.86C215.758 22.06 214.726 23.56 214.102 25.36C213.502 27.16 213.202 28.96 213.202 30.76V52H207.082ZM274.529 52.936C273.353 52.936 272.357 52.54 271.541 51.748C270.749 50.932 270.353 49.936 270.353 48.76C270.353 47.608 270.749 46.624 271.541 45.808C272.357 44.992 273.353 44.584 274.529 44.584C275.681 44.584 276.665 44.992 277.481 45.808C278.297 46.624 278.705 47.608 278.705 48.76C278.705 49.936 278.297 50.932 277.481 51.748C276.665 52.54 275.681 52.936 274.529 52.936Z" fill="black"/>
<path d="M28.1465 49.66L28.0667 50.6568L28.0686 50.657L28.1465 49.66ZM35.6705 51.892L35.1302 52.7335L35.1363 52.7374L35.1423 52.7412L35.6705 51.892ZM5.75447 65.644L6.25206 64.7766L6.24697 64.7737L5.75447 65.644ZM1.43447 55.888L0.485786 55.5718L0.479587 55.5904L0.474123 55.6092L1.43447 55.888ZM2.22647 54.124L2.37302 53.1348L1.72876 53.0394L1.38098 53.59L2.22647 54.124ZM8.05847 54.988L8.86721 55.5762L9.8384 54.2408L8.20502 53.9988L8.05847 54.988ZM7.48247 56.176L6.54268 55.8343L6.53356 55.8593L6.52579 55.8848L7.48247 56.176ZM10.5065 62.116L10.8474 61.1759L10.8382 61.1726L10.5065 62.116ZM29.6945 61.936L30.0909 62.8541L30.0909 62.8541L29.6945 61.936ZM30.8825 55.312L31.1618 54.3517L31.1501 54.3485L30.8825 55.312ZM26.0585 54.556L26.1333 53.5588L26.1325 53.5587L26.0585 54.556ZM11.5145 53.476L11.4355 54.4729L11.4404 54.4733L11.5145 53.476ZM5.57447 51.244L4.91681 51.9973L4.92316 52.0029L4.9296 52.0083L5.57447 51.244ZM4.60247 42.388L3.7825 41.8156L3.78028 41.8188L4.60247 42.388ZM7.26647 39.688L7.77754 40.5475L8.95964 39.8447L7.92658 38.9368L7.26647 39.688ZM4.63847 20.788L3.78561 20.2658L3.7841 20.2683L4.63847 20.788ZM10.6145 15.244L11.0816 16.1282L11.0881 16.1247L10.6145 15.244ZM27.4625 14.92L27.0115 15.8125L27.0153 15.8144L27.4625 14.92ZM32.7545 19.06L31.9588 19.6657L33.434 21.6037L33.7462 19.1882L32.7545 19.06ZM33.4385 13.768V12.768H32.5594L32.4467 13.6398L33.4385 13.768ZM39.1985 13.768L40.1862 13.924L40.3688 12.768H39.1985V13.768ZM36.8225 28.816L35.8347 28.66L35.8341 28.6639L36.8225 28.816ZM34.1225 36.448L34.9776 36.9665L34.98 36.9625L34.1225 36.448ZM28.5065 41.848L28.9959 42.7201L28.9988 42.7184L28.5065 41.848ZM11.3705 42.244L11.7633 41.3244L11.2324 41.0976L10.7705 41.444L11.3705 42.244ZM10.0385 43.576L9.24718 42.9646L9.23829 42.9761L9.22973 42.9878L10.0385 43.576ZM10.5065 47.5L9.8689 48.2704L9.87692 48.277L9.88507 48.2835L10.5065 47.5ZM14.6465 48.58L14.5653 49.5767L14.5667 49.5768L14.6465 48.58ZM27.9305 35.8L27.2804 35.0401L27.2759 35.044L27.9305 35.8ZM11.6585 21.4L12.3164 22.1531L12.3164 22.1531L11.6585 21.4ZM11.5145 35.8L10.8592 36.5554L10.8644 36.5599L11.5145 35.8ZM28.0686 50.657C31.0288 50.8882 33.3638 51.5995 35.1302 52.7335L36.2107 51.0505C34.0892 49.6885 31.4081 48.9118 28.2244 48.663L28.0686 50.657ZM35.1423 52.7412C36.757 53.7454 37.6225 55.3766 37.6225 57.868H39.6225C39.6225 54.8394 38.52 52.4866 36.1986 51.0428L35.1423 52.7412ZM37.6225 57.868C37.6225 60.5187 36.2996 62.7366 33.3806 64.5415L34.4324 66.2425C37.8013 64.1594 39.6225 61.3613 39.6225 57.868H37.6225ZM33.3806 64.5415C30.4731 66.3392 25.8979 67.308 19.5065 67.308V69.308C26.027 69.308 31.0519 68.3328 34.4324 66.2425L33.3806 64.5415ZM19.5065 67.308C13.5015 67.308 9.12473 66.4245 6.25206 64.7766L5.25688 66.5114C8.57621 68.4155 13.3674 69.308 19.5065 69.308V67.308ZM6.24697 64.7737C3.40192 63.1637 2.11047 61.065 2.11047 58.444H0.110469C0.110469 61.919 1.91501 64.6203 5.26197 66.5143L6.24697 64.7737ZM2.11047 58.444C2.11047 57.5568 2.21052 56.8016 2.39482 56.1668L0.474123 55.6092C0.226421 56.4624 0.110469 57.4112 0.110469 58.444H2.11047ZM2.38315 56.2042C2.60711 55.5323 2.84049 55.0245 3.07196 54.658L1.38098 53.59C1.03645 54.1355 0.741824 54.8037 0.485786 55.5718L2.38315 56.2042ZM2.07992 55.1132L7.91192 55.9772L8.20502 53.9988L2.37302 53.1348L2.07992 55.1132ZM7.24973 54.3998C6.9771 54.7747 6.74718 55.2719 6.54268 55.8343L8.42226 56.5177C8.60176 56.0241 8.75584 55.7293 8.86721 55.5762L7.24973 54.3998ZM6.52579 55.8848C6.32299 56.5512 6.23047 57.2887 6.23047 58.084H8.23047C8.23047 57.4393 8.30595 56.9048 8.43914 56.4672L6.52579 55.8848ZM6.23047 58.084C6.23047 59.2471 6.56662 60.2928 7.27335 61.1626C7.96874 62.0185 8.96556 62.6342 10.1747 63.0594L10.8382 61.1726C9.86338 60.8298 9.2222 60.3895 8.82558 59.9014C8.44032 59.4272 8.23047 58.8409 8.23047 58.084H6.23047ZM10.1656 63.0561C12.5104 63.9064 15.7419 64.304 19.7945 64.304V62.304C15.8311 62.304 12.8705 61.9096 10.8474 61.1759L10.1656 63.0561ZM19.7945 64.304C24.3138 64.304 27.784 63.8502 30.0909 62.8541L29.298 61.0179C27.3809 61.8458 24.2512 62.304 19.7945 62.304V64.304ZM30.0909 62.8541C32.3685 61.8706 33.8625 60.3676 33.8625 58.228H31.8625C31.8625 59.2084 31.2445 60.1774 29.298 61.0179L30.0909 62.8541ZM33.8625 58.228C33.8625 57.3123 33.6688 56.4654 33.1948 55.7672C32.7125 55.0569 32.0054 54.5972 31.1618 54.3518L30.6031 56.2722C31.0796 56.4108 31.3625 56.6291 31.5402 56.8908C31.7261 57.1646 31.8625 57.5837 31.8625 58.228H33.8625ZM31.1501 54.3485C29.7706 53.9653 28.0931 53.7058 26.1333 53.5588L25.9837 55.5532C27.8638 55.6942 29.4024 55.9387 30.6148 56.2755L31.1501 54.3485ZM26.1325 53.5587L11.5885 52.4787L11.4404 54.4733L25.9844 55.5533L26.1325 53.5587ZM11.5934 52.4791C9.33312 52.3001 7.56453 51.6147 6.21934 50.4797L4.9296 52.0083C6.65641 53.4653 8.84782 54.2679 11.4355 54.4729L11.5934 52.4791ZM6.23213 50.4907C4.91988 49.3451 4.30647 48.0165 4.30647 46.456H2.30647C2.30647 48.6395 3.20505 50.5029 4.91681 51.9973L6.23213 50.4907ZM4.30647 46.456C4.30647 45.2032 4.67191 44.0445 5.42466 42.9572L3.78028 41.8188C2.80503 43.2275 2.30647 44.7808 2.30647 46.456H4.30647ZM5.42243 42.9604C6.26616 41.7518 7.05733 40.9758 7.77754 40.5475L6.75539 38.8285C5.69961 39.4562 4.71477 40.4802 3.78251 41.8156L5.42243 42.9604ZM7.92658 38.9368C4.99366 36.3594 3.51447 32.9707 3.51447 28.672H1.51447C1.51447 33.4933 3.20328 37.4486 6.60635 40.4392L7.92658 38.9368ZM3.51447 28.672C3.51447 25.9131 4.17921 23.4674 5.49284 21.3077L3.7841 20.2683C2.26573 22.7646 1.51447 25.5749 1.51447 28.672H3.51447ZM5.49132 21.3102C6.83342 19.1181 8.68916 17.3921 11.0816 16.1282L10.1473 14.3598C7.45178 15.7839 5.32351 17.7539 3.78562 20.2658L5.49132 21.3102ZM11.0881 16.1247C13.4674 14.8453 16.2167 14.192 19.3625 14.192V12.192C15.9323 12.192 12.8495 12.9067 10.1409 14.3633L11.0881 16.1247ZM19.3625 14.192C22.36 14.192 24.8989 14.7451 27.0115 15.8125L27.9134 14.0275C25.466 12.7909 22.605 12.192 19.3625 12.192V14.192ZM27.0153 15.8144C29.219 16.9163 30.8492 18.208 31.9588 19.6657L33.5502 18.4543C32.2118 16.696 30.314 15.2277 27.9097 14.0256L27.0153 15.8144ZM33.7462 19.1882L34.4302 13.8962L32.4467 13.6398L31.7627 18.9318L33.7462 19.1882ZM33.4385 14.768H39.1985V12.768H33.4385V14.768ZM38.2107 13.612L35.8347 28.66L37.8102 28.972L40.1862 13.924L38.2107 13.612ZM35.8341 28.6639C35.4204 31.3527 34.5618 33.7721 33.265 35.9335L34.98 36.9625C36.4191 34.5639 37.3605 31.8953 37.8108 28.9681L35.8341 28.6639ZM33.2674 35.9295C31.9913 38.0339 30.2465 39.7149 28.0141 40.9776L28.9988 42.7184C31.5185 41.2931 33.5176 39.3741 34.9775 36.9665L33.2674 35.9295ZM28.0171 40.9759C25.8518 42.1911 23.1156 42.828 19.7585 42.828V44.828C23.3613 44.828 26.4571 44.1449 28.9959 42.7201L28.0171 40.9759ZM19.7585 42.828C16.752 42.828 14.0928 42.3195 11.7633 41.3244L10.9776 43.1636C13.5921 44.2805 16.5249 44.828 19.7585 44.828V42.828ZM10.7705 41.444C10.211 41.8636 9.7041 42.3732 9.24718 42.9646L10.8298 44.1874C11.1888 43.7228 11.57 43.3444 11.9705 43.044L10.7705 41.444ZM9.22973 42.9878C8.72756 43.6783 8.46247 44.4585 8.46247 45.304H10.4625C10.4625 44.9015 10.5814 44.5297 10.8472 44.1642L9.22973 42.9878ZM8.46247 45.304C8.46247 46.4959 8.94797 47.5082 9.8689 48.2704L11.144 46.7296C10.673 46.3398 10.4625 45.8881 10.4625 45.304H8.46247ZM9.88507 48.2835C10.3881 48.6824 11.0586 48.9553 11.811 49.1516C12.5761 49.3512 13.4989 49.4899 14.5653 49.5767L14.7276 47.5833C13.73 47.5021 12.9308 47.3768 12.3159 47.2164C11.6884 47.0527 11.3209 46.8696 11.1279 46.7165L9.88507 48.2835ZM14.5667 49.5768L28.0667 50.6568L28.2262 48.6632L14.7262 47.5832L14.5667 49.5768ZM19.7225 39.356C23.383 39.356 26.3806 38.4647 28.585 36.556L27.2759 35.044C25.5444 36.5433 23.0699 37.356 19.7225 37.356V39.356ZM28.5805 36.5599C30.839 34.6279 31.9185 31.9003 31.9185 28.528H29.9185C29.9185 31.4437 29.0059 33.5641 27.2804 35.0401L28.5805 36.5599ZM31.9185 28.528C31.9185 25.261 30.8303 22.5737 28.5959 20.5816L27.265 22.0744C29.0146 23.6343 29.9185 25.747 29.9185 28.528H31.9185ZM28.5959 20.5816C26.372 18.5988 23.3856 17.664 19.7585 17.664V19.664C23.0433 19.664 25.5049 20.5052 27.265 22.0744L28.5959 20.5816ZM19.7585 17.664C16.254 17.664 13.3049 18.6339 11.0006 20.6469L12.3164 22.1531C14.1881 20.5181 16.639 19.664 19.7585 19.664V17.664ZM11.0006 20.6469C8.67584 22.6777 7.52647 25.3741 7.52647 28.636H9.52647C9.52647 25.8979 10.4651 23.7703 12.3164 22.1531L11.0006 20.6469ZM7.52647 28.636C7.52647 31.9238 8.61306 34.6069 10.8592 36.5554L12.1697 35.0446C10.4319 33.5371 9.52647 31.4442 9.52647 28.636H7.52647ZM10.8644 36.5599C13.0897 38.4634 16.0831 39.356 19.7225 39.356V37.356C16.4019 37.356 13.9232 36.5446 12.1645 35.0401L10.8644 36.5599ZM48.6293 49.696L48.0179 50.4873L48.0224 50.4908L48.6293 49.696ZM48.9533 32.776L49.5064 33.6091L49.5113 33.6059L48.9533 32.776ZM60.2933 29.212L60.3898 30.2073L60.3949 30.2068L60.2933 29.212ZM70.3373 27.808L70.5605 28.7828L70.5716 28.7802L70.3373 27.808ZM70.6253 20.464L70.1025 21.3165L70.1108 21.3215L70.6253 20.464ZM54.5333 20.68L55.0615 21.5292L55.0689 21.5245L54.5333 20.68ZM51.5813 26.656V27.656H52.5813V26.656H51.5813ZM45.5333 26.656H44.5333V27.656H45.5333V26.656ZM47.7293 19.384L48.5351 19.9762L48.5385 19.9716L47.7293 19.384ZM53.8133 14.776L53.439 13.8487L53.436 13.8499L53.8133 14.776ZM71.2733 14.632L70.9143 15.5654L70.9252 15.5694L71.2733 14.632ZM77.2493 18.844L76.4616 19.46L76.466 19.4656L76.4705 19.4712L77.2493 18.844ZM79.5893 47.248L78.5935 47.3385L78.5935 47.3385L79.5893 47.248ZM79.9493 49.336L78.9864 49.6056L78.9889 49.6145L78.9915 49.6233L79.9493 49.336ZM80.6693 51.1L79.8039 51.601L79.8099 51.6113L79.8161 51.6214L80.6693 51.1ZM81.3173 52V53H83.7316L82.0244 51.2929L81.3173 52ZM75.1613 52L74.4542 52.7071L74.7471 53H75.1613V52ZM73.9373 49.588L72.9976 49.9297L72.9981 49.9312L73.9373 49.588ZM73.5053 47.464L74.4996 47.3565L74.2462 45.0129L72.7371 46.8238L73.5053 47.464ZM67.8533 51.28L67.4883 50.349L67.8533 51.28ZM66.8093 46.096L67.1593 47.0328L67.1691 47.0291L66.8093 46.096ZM71.5613 42.712L70.7768 42.0919L70.7768 42.0919L71.5613 42.712ZM73.3253 32.344H74.3253V30.9838L73.0271 31.3895L73.3253 32.344ZM67.9973 33.532L68.1388 34.522L68.1503 34.5202L67.9973 33.532ZM61.7693 34.252L61.6798 33.256L61.677 33.2563L61.7693 34.252ZM53.5613 36.16L53.1095 35.2679L53.1048 35.2703L53.5613 36.16ZM59.1413 51.72C54.9236 51.72 51.654 50.7475 49.2363 48.9012L48.0224 50.4908C50.8847 52.6765 54.6231 53.72 59.1413 53.72V51.72ZM49.2408 48.9047C46.8674 47.0707 45.6693 44.5545 45.6693 41.236H43.6693C43.6693 45.1175 45.1113 48.2413 48.0179 50.4873L49.2408 48.9047ZM45.6693 41.236C45.6693 37.7905 46.9587 35.3005 49.5064 33.6091L48.4003 31.9429C45.236 34.0435 43.6693 37.1935 43.6693 41.236H45.6693ZM49.5113 33.6059C52.1878 31.8066 55.7923 30.653 60.3898 30.2073L60.1969 28.2167C55.3864 28.683 51.4309 29.9054 48.3954 31.9461L49.5113 33.6059ZM60.3949 30.2068C65.1008 29.7266 68.5028 29.2538 70.5605 28.7828L70.1142 26.8332C68.1878 27.2742 64.8939 27.7374 60.1918 28.2172L60.3949 30.2068ZM70.5716 28.7802C71.6287 28.5255 72.5311 28.1712 73.189 27.6639C73.8799 27.1311 74.3253 26.4029 74.3253 25.504H72.3253C72.3253 25.6611 72.2728 25.8449 71.9677 26.0801C71.6296 26.3408 71.038 26.6105 70.1031 26.8358L70.5716 28.7802ZM74.3253 25.504V25.396H72.3253V25.504H74.3253ZM74.3253 25.396C74.3253 22.8589 73.2596 20.8784 71.1398 19.6065L70.1108 21.3215C71.5911 22.2096 72.3253 23.5171 72.3253 25.396H74.3253ZM71.1482 19.6116C69.1219 18.3688 66.3035 17.808 62.8133 17.808V19.808C66.1392 19.808 68.5288 20.3512 70.1025 21.3164L71.1482 19.6116ZM62.8133 17.808C59.1639 17.808 56.1892 18.4458 53.9978 19.8355L55.0689 21.5245C56.8135 20.4182 59.3588 19.808 62.8133 19.808V17.808ZM54.0052 19.8308C51.6839 21.2746 50.5813 23.6274 50.5813 26.656H52.5813C52.5813 24.1646 53.4468 22.5334 55.0615 21.5292L54.0052 19.8308ZM51.5813 25.656H45.5333V27.656H51.5813V25.656ZM46.5333 26.656C46.5333 23.9787 47.2162 21.7708 48.5351 19.9762L46.9236 18.7918C45.3145 20.9812 44.5333 23.6213 44.5333 26.656H46.5333ZM48.5385 19.9716C49.8798 18.1245 51.7494 16.6967 54.1906 15.7021L53.436 13.8499C50.6932 14.9673 48.5069 16.6115 46.9202 18.7964L48.5385 19.9716ZM54.1877 15.7033C56.6628 14.7042 59.5436 14.192 62.8493 14.192V12.192C59.3391 12.192 56.1959 12.7358 53.439 13.8487L54.1877 15.7033ZM62.8493 14.192C65.8667 14.192 68.5503 14.6561 70.9144 15.5653L71.6323 13.6987C69.0044 12.6879 66.072 12.192 62.8493 12.192V14.192ZM70.9252 15.5694C73.2951 16.4497 75.126 17.7522 76.4616 19.46L78.0371 18.228C76.4447 16.1918 74.2916 14.6863 71.6215 13.6946L70.9252 15.5694ZM76.4705 19.4712C77.7939 21.1148 78.4813 23.1754 78.4813 25.72H80.4813C80.4813 22.7925 79.6808 20.2692 78.0282 18.2168L76.4705 19.4712ZM78.4813 25.72V44.8H80.4813V25.72H78.4813ZM78.4813 44.8C78.4813 45.6685 78.5186 46.5148 78.5935 47.3385L80.5852 47.1575C80.5161 46.3972 80.4813 45.6115 80.4813 44.8H78.4813ZM78.5935 47.3385C78.6695 48.1754 78.7982 48.9336 78.9864 49.6056L80.9123 49.0664C80.7645 48.5384 80.6532 47.9046 80.5852 47.1575L78.5935 47.3385ZM78.9915 49.6233C79.2212 50.3891 79.4883 51.0558 79.8039 51.601L81.5348 50.599C81.3224 50.2322 81.1094 49.7229 80.9072 49.0487L78.9915 49.6233ZM79.8161 51.6214C80.0858 52.0628 80.3529 52.4498 80.6102 52.7071L82.0244 51.2929C81.9458 51.2142 81.7809 51.0012 81.5226 50.5786L79.8161 51.6214ZM81.3173 51H75.1613V53H81.3173V51ZM75.8685 51.2929C75.7994 51.2239 75.6642 51.0431 75.4771 50.6745C75.2973 50.3203 75.0967 49.8472 74.8766 49.2448L72.9981 49.9312C73.234 50.5768 73.4653 51.1297 73.6936 51.5795C73.9145 52.0149 74.1633 52.4161 74.4542 52.7071L75.8685 51.2929ZM74.8771 49.2463C74.7239 48.8247 74.5913 48.2055 74.4996 47.3565L72.5111 47.5715C72.6114 48.4985 72.7668 49.2953 72.9976 49.9297L74.8771 49.2463ZM72.7371 46.8238C71.5506 48.2477 69.8217 49.4339 67.4883 50.349L68.2184 52.211C70.781 51.2061 72.8201 49.8483 74.2736 48.1042L72.7371 46.8238ZM67.4883 50.349C65.1839 51.2527 62.4096 51.72 59.1413 51.72V53.72C62.5931 53.72 65.6268 53.2273 68.2184 52.211L67.4883 50.349ZM60.1133 48.212C62.6857 48.212 65.0387 47.8248 67.1592 47.0328L66.4595 45.1592C64.596 45.8552 62.485 46.212 60.1133 46.212V48.212ZM67.1691 47.0291C69.3067 46.2049 71.0454 44.9776 72.3459 43.3321L70.7768 42.0919C69.7253 43.4224 68.296 44.4511 66.4496 45.1629L67.1691 47.0291ZM72.3459 43.3321C73.6836 41.6394 74.3253 39.5624 74.3253 37.168H72.3253C72.3253 39.1896 71.7911 40.8086 70.7768 42.0919L72.3459 43.3321ZM74.3253 37.168V32.344H72.3253V37.168H74.3253ZM73.0271 31.3895C71.5492 31.8514 69.8235 32.2375 67.8444 32.5438L68.1503 34.5202C70.2031 34.2025 72.0295 33.7966 73.6236 33.2985L73.0271 31.3895ZM67.8559 32.5421C65.858 32.8275 63.7994 33.0655 61.6798 33.256L61.8589 35.248C64.0113 35.0545 66.1046 34.8125 68.1388 34.5219L67.8559 32.5421ZM61.677 33.2563C58.008 33.5964 55.1243 34.2474 53.1095 35.2679L54.0132 37.0521C55.6944 36.2006 58.2827 35.5796 61.8617 35.2477L61.677 33.2563ZM53.1048 35.2703C52.0448 35.8143 51.2085 36.5668 50.6444 37.5392C50.0827 38.5073 49.8253 39.6335 49.8253 40.876H51.8253C51.8253 39.9105 52.024 39.1467 52.3743 38.5428C52.7222 37.9432 53.2539 37.4417 54.0179 37.0497L53.1048 35.2703ZM49.8253 40.876C49.8253 43.2696 50.7246 45.1858 52.5838 46.4541C54.3744 47.6756 56.9348 48.212 60.1133 48.212V46.212C57.0998 46.212 55.0163 45.6924 53.7109 44.8019C52.4741 43.9582 51.8253 42.7064 51.8253 40.876H49.8253ZM96.9323 51.28L96.4666 52.165L96.4758 52.1697L96.9323 51.28ZM92.5763 47.572L91.7565 48.1446L91.7626 48.1532L92.5763 47.572ZM90.3083 42.676L89.3367 42.9124L89.3386 42.9201L89.3406 42.9279L90.3083 42.676ZM89.6603 13.768V12.768H88.6603V13.768H89.6603ZM95.8163 13.768H96.8163V12.768H95.8163V13.768ZM96.6083 41.488L95.6555 41.7918L95.6597 41.8042L96.6083 41.488ZM99.4523 45.52L98.8433 46.3132L98.8523 46.32L99.4523 45.52ZM110.792 45.052L111.416 45.834L111.423 45.8285L110.792 45.052ZM114.68 40.048L115.585 40.4733L115.587 40.4691L114.68 40.048ZM116.084 13.768V12.768H115.084V13.768H116.084ZM122.204 13.768H123.204V12.768H122.204V13.768ZM122.204 52V53H123.204V52H122.204ZM116.084 52H115.084V53H116.084V52ZM116.084 46.312H117.084V43.2913L115.282 45.7153L116.084 46.312ZM110.864 50.92L111.355 51.7913L111.363 51.787L110.864 50.92ZM103.772 51.684C101.144 51.684 99.0324 51.2337 97.3889 50.3903L96.4758 52.1697C98.4803 53.1983 100.928 53.684 103.772 53.684V51.684ZM97.3981 50.3951C95.6969 49.4997 94.3698 48.3624 93.3901 46.9908L91.7626 48.1532C92.9429 49.8056 94.5198 51.1403 96.4666 52.1649L97.3981 50.3951ZM93.3962 46.9994C92.4068 45.5828 91.7016 44.0591 91.2761 42.4241L89.3406 42.9279C89.827 44.7969 90.6339 46.5372 91.7565 48.1446L93.3962 46.9994ZM91.28 42.4396C90.8646 40.7319 90.6603 39.1075 90.6603 37.564H88.6603C88.6603 39.2845 88.8881 41.0681 89.3367 42.9124L91.28 42.4396ZM90.6603 37.564V13.768H88.6603V37.564H90.6603ZM89.6603 14.768H95.8163V12.768H89.6603V14.768ZM94.8163 13.768V36.088H96.8163V13.768H94.8163ZM94.8163 36.088C94.8163 38.123 95.0928 40.0267 95.6556 41.7918L97.5611 41.1842C97.0679 39.6373 96.8163 37.941 96.8163 36.088H94.8163ZM95.6597 41.8042C96.2727 43.6435 97.3361 45.1558 98.8433 46.3131L100.061 44.7268C98.8806 43.8202 98.0479 42.6445 97.557 41.1718L95.6597 41.8042ZM98.8523 46.32C100.427 47.5007 102.512 48.032 104.996 48.032V46.032C102.776 46.032 101.166 45.5553 100.052 44.72L98.8523 46.32ZM104.996 48.032C107.42 48.032 109.575 47.3015 111.416 45.834L110.169 44.27C108.698 45.4425 106.988 46.032 104.996 46.032V48.032ZM111.423 45.8285C113.199 44.3865 114.587 42.597 115.585 40.4733L113.775 39.6227C112.901 41.483 111.697 43.0295 110.162 44.2755L111.423 45.8285ZM115.587 40.4691C116.577 38.3366 117.084 36.1895 117.084 34.036H115.084C115.084 35.8665 114.655 37.7274 113.773 39.6269L115.587 40.4691ZM117.084 34.036V13.768H115.084V34.036H117.084ZM116.084 14.768H122.204V12.768H116.084V14.768ZM121.204 13.768V52H123.204V13.768H121.204ZM122.204 51H116.084V53H122.204V51ZM117.084 52V46.312H115.084V52H117.084ZM115.282 45.7153C113.974 47.4737 112.339 48.919 110.366 50.053L111.363 51.787C113.566 50.521 115.41 48.8943 116.887 46.9087L115.282 45.7153ZM110.374 50.0487C108.45 51.132 106.258 51.684 103.772 51.684V53.684C106.566 53.684 109.102 53.06 111.355 51.7913L110.374 50.0487ZM143.416 51.856L143.086 52.7999L143.095 52.8031L143.105 52.8062L143.416 51.856ZM139.888 49.048L139.052 49.596L139.056 49.6027L139.888 49.048ZM138.52 19.168H139.52V18.168H138.52V19.168ZM129.196 19.168H128.196V20.168H129.196V19.168ZM129.196 13.768V12.768H128.196V13.768H129.196ZM137.512 13.588L137.767 14.5551L137.79 14.5489L137.813 14.5416L137.512 13.588ZM138.34 12.544L137.361 12.34L137.358 12.3563L137.355 12.3727L138.34 12.544ZM138.52 1.096V0.0959988H137.52V1.096H138.52ZM144.676 1.096H145.676V0.0959988H144.676V1.096ZM144.676 13.768H143.676V14.768H144.676V13.768ZM156.628 13.768H157.628V12.768H156.628V13.768ZM156.628 19.168V20.168H157.628V19.168H156.628ZM144.676 19.168V18.168H143.676V19.168H144.676ZM145.396 45.448L144.473 45.8326L144.477 45.8407L144.48 45.8488L145.396 45.448ZM150.724 46.996L150.535 46.014L150.535 46.014L150.724 46.996ZM152.128 46.636H153.128V45.18L151.769 45.7027L152.128 46.636ZM152.128 51.964L152.461 52.907L153.128 52.6715V51.964H152.128ZM150.4 52.36L150.241 51.3728L150.222 51.3757L150.204 51.3794L150.4 52.36ZM147.952 51.576C146.497 51.576 145.09 51.3524 143.728 50.9058L143.105 52.8062C144.671 53.3196 146.288 53.576 147.952 53.576V51.576ZM143.747 50.9121C142.528 50.4856 141.522 49.6954 140.72 48.4933L139.056 49.6027C140.079 51.1366 141.425 52.2184 143.086 52.7999L143.747 50.9121ZM140.725 48.5C139.966 47.3416 139.52 45.54 139.52 42.964H137.52C137.52 45.716 137.987 47.9704 139.052 49.596L140.725 48.5ZM139.52 42.964V19.168H137.52V42.964H139.52ZM138.52 18.168H129.196V20.168H138.52V18.168ZM130.196 19.168V13.768H128.196V19.168H130.196ZM129.196 14.768H135.172V12.768H129.196V14.768ZM135.172 14.768C136.278 14.768 137.174 14.7111 137.767 14.5551L137.258 12.6209C136.939 12.7049 136.274 12.768 135.172 12.768V14.768ZM137.813 14.5416C138.216 14.4143 138.573 14.1829 138.845 13.8404C139.11 13.5057 139.256 13.1137 139.325 12.7153L137.355 12.3727C137.328 12.5263 137.288 12.5843 137.278 12.5976C137.272 12.6045 137.268 12.6082 137.263 12.6118C137.257 12.6158 137.242 12.6248 137.211 12.6344L137.813 14.5416ZM139.319 12.748C139.462 12.0643 139.52 11.0525 139.52 9.772H137.52C137.52 11.0355 137.459 11.8717 137.361 12.34L139.319 12.748ZM139.52 9.772V1.096H137.52V9.772H139.52ZM138.52 2.096H144.676V0.0959988H138.52V2.096ZM143.676 1.096V13.768H145.676V1.096H143.676ZM144.676 14.768H156.628V12.768H144.676V14.768ZM155.628 13.768V19.168H157.628V13.768H155.628ZM156.628 18.168H144.676V20.168H156.628V18.168ZM143.676 19.168V40.66H145.676V19.168H143.676ZM143.676 40.66C143.676 42.7587 143.92 44.5056 144.473 45.8326L146.319 45.0634C145.912 44.0864 145.676 42.6413 145.676 40.66H143.676ZM144.48 45.8488C145.204 47.5027 146.795 48.176 148.744 48.176V46.176C147.237 46.176 146.597 45.6973 146.312 45.0472L144.48 45.8488ZM148.744 48.176C149.498 48.176 150.221 48.111 150.913 47.978L150.535 46.014C149.979 46.121 149.383 46.176 148.744 46.176V48.176ZM150.913 47.978C151.553 47.8549 152.091 47.7218 152.487 47.5693L151.769 45.7027C151.542 45.7902 151.143 45.8971 150.535 46.014L150.913 47.978ZM151.128 46.636V51.964H153.128V46.636H151.128ZM151.795 51.021C151.47 51.1357 150.962 51.2564 150.241 51.3728L150.559 53.3472C151.326 53.2236 151.97 53.0803 152.461 52.907L151.795 51.021ZM150.204 51.3794C149.562 51.5078 148.813 51.576 147.952 51.576V53.576C148.915 53.576 149.798 53.5002 150.596 53.3406L150.204 51.3794ZM166.051 49.696L165.44 50.4873L165.444 50.4908L166.051 49.696ZM166.375 32.776L166.928 33.6091L166.933 33.6059L166.375 32.776ZM177.715 29.212L177.812 30.2073L177.817 30.2068L177.715 29.212ZM187.759 27.808L187.982 28.7828L187.993 28.7802L187.759 27.808ZM188.047 20.464L187.524 21.3165L187.533 21.3215L188.047 20.464ZM171.955 20.68L172.483 21.5292L172.491 21.5245L171.955 20.68ZM169.003 26.656V27.656H170.003V26.656H169.003ZM162.955 26.656H161.955V27.656H162.955V26.656ZM165.151 19.384L165.957 19.9762L165.96 19.9716L165.151 19.384ZM171.235 14.776L170.861 13.8487L170.858 13.8499L171.235 14.776ZM188.695 14.632L188.336 15.5654L188.347 15.5694L188.695 14.632ZM194.671 18.844L193.884 19.46L193.888 19.4656L193.892 19.4712L194.671 18.844ZM197.011 47.248L196.015 47.3385L196.015 47.3385L197.011 47.248ZM197.371 49.336L196.408 49.6056L196.411 49.6145L196.413 49.6233L197.371 49.336ZM198.091 51.1L197.226 51.601L197.232 51.6113L197.238 51.6214L198.091 51.1ZM198.739 52V53H201.153L199.446 51.2929L198.739 52ZM192.583 52L191.876 52.7071L192.169 53H192.583V52ZM191.359 49.588L190.419 49.9297L190.42 49.9312L191.359 49.588ZM190.927 47.464L191.921 47.3565L191.668 45.0129L190.159 46.8238L190.927 47.464ZM185.275 51.28L184.91 50.349L185.275 51.28ZM184.231 46.096L184.581 47.0328L184.591 47.0291L184.231 46.096ZM188.983 42.712L188.199 42.0919L188.199 42.0919L188.983 42.712ZM190.747 32.344H191.747V30.9838L190.449 31.3895L190.747 32.344ZM185.419 33.532L185.561 34.522L185.572 34.5202L185.419 33.532ZM179.191 34.252L179.102 33.256L179.099 33.2563L179.191 34.252ZM170.983 36.16L170.531 35.2679L170.527 35.2703L170.983 36.16ZM176.563 51.72C172.345 51.72 169.076 50.7475 166.658 48.9012L165.444 50.4908C168.307 52.6765 172.045 53.72 176.563 53.72V51.72ZM166.663 48.9047C164.289 47.0707 163.091 44.5545 163.091 41.236H161.091C161.091 45.1175 162.533 48.2413 165.44 50.4873L166.663 48.9047ZM163.091 41.236C163.091 37.7905 164.381 35.3005 166.928 33.6091L165.822 31.9429C162.658 34.0435 161.091 37.1935 161.091 41.236H163.091ZM166.933 33.6059C169.61 31.8066 173.214 30.653 177.812 30.2073L177.619 28.2167C172.808 28.683 168.853 29.9054 165.817 31.9461L166.933 33.6059ZM177.817 30.2068C182.523 29.7266 185.925 29.2538 187.982 28.7828L187.536 26.8332C185.61 27.2742 182.316 27.7374 177.614 28.2172L177.817 30.2068ZM187.993 28.7802C189.051 28.5255 189.953 28.1712 190.611 27.6639C191.302 27.1311 191.747 26.4029 191.747 25.504H189.747C189.747 25.6611 189.695 25.8449 189.39 26.0801C189.051 26.3408 188.46 26.6105 187.525 26.8358L187.993 28.7802ZM191.747 25.504V25.396H189.747V25.504H191.747ZM191.747 25.396C191.747 22.8589 190.681 20.8784 188.562 19.6065L187.533 21.3215C189.013 22.2096 189.747 23.5171 189.747 25.396H191.747ZM188.57 19.6116C186.544 18.3688 183.725 17.808 180.235 17.808V19.808C183.561 19.808 185.951 20.3512 187.524 21.3164L188.57 19.6116ZM180.235 17.808C176.586 17.808 173.611 18.4458 171.42 19.8355L172.491 21.5245C174.235 20.4182 176.781 19.808 180.235 19.808V17.808ZM171.427 19.8308C169.106 21.2746 168.003 23.6274 168.003 26.656H170.003C170.003 24.1646 170.869 22.5334 172.483 21.5292L171.427 19.8308ZM169.003 25.656H162.955V27.656H169.003V25.656ZM163.955 26.656C163.955 23.9787 164.638 21.7708 165.957 19.9762L164.345 18.7918C162.736 20.9812 161.955 23.6213 161.955 26.656H163.955ZM165.96 19.9716C167.302 18.1245 169.171 16.6967 171.613 15.7021L170.858 13.8499C168.115 14.9673 165.929 16.6115 164.342 18.7964L165.96 19.9716ZM171.61 15.7033C174.085 14.7042 176.965 14.192 180.271 14.192V12.192C176.761 12.192 173.618 12.7358 170.861 13.8487L171.61 15.7033ZM180.271 14.192C183.289 14.192 185.972 14.6561 188.336 15.5653L189.054 13.6987C186.426 12.6879 183.494 12.192 180.271 12.192V14.192ZM188.347 15.5694C190.717 16.4497 192.548 17.7522 193.884 19.46L195.459 18.228C193.867 16.1918 191.714 14.6863 189.043 13.6946L188.347 15.5694ZM193.892 19.4712C195.216 21.1148 195.903 23.1754 195.903 25.72H197.903C197.903 22.7925 197.103 20.2692 195.45 18.2168L193.892 19.4712ZM195.903 25.72V44.8H197.903V25.72H195.903ZM195.903 44.8C195.903 45.6685 195.94 46.5148 196.015 47.3385L198.007 47.1575C197.938 46.3972 197.903 45.6115 197.903 44.8H195.903ZM196.015 47.3385C196.091 48.1754 196.22 48.9336 196.408 49.6056L198.334 49.0664C198.186 48.5384 198.075 47.9046 198.007 47.1575L196.015 47.3385ZM196.413 49.6233C196.643 50.3891 196.91 51.0558 197.226 51.601L198.957 50.599C198.744 50.2322 198.531 49.7229 198.329 49.0487L196.413 49.6233ZM197.238 51.6214C197.508 52.0628 197.775 52.4498 198.032 52.7071L199.446 51.2929C199.368 51.2142 199.203 51.0012 198.945 50.5786L197.238 51.6214ZM198.739 51H192.583V53H198.739V51ZM193.29 51.2929C193.221 51.2239 193.086 51.0431 192.899 50.6745C192.719 50.3203 192.519 49.8472 192.298 49.2448L190.42 49.9312C190.656 50.5768 190.887 51.1297 191.115 51.5795C191.336 52.0149 191.585 52.4161 191.876 52.7071L193.29 51.2929ZM192.299 49.2463C192.146 48.8247 192.013 48.2055 191.921 47.3565L189.933 47.5715C190.033 48.4985 190.189 49.2953 190.419 49.9297L192.299 49.2463ZM190.159 46.8238C188.972 48.2477 187.244 49.4339 184.91 50.349L185.64 52.211C188.203 51.2061 190.242 49.8483 191.695 48.1042L190.159 46.8238ZM184.91 50.349C182.606 51.2527 179.831 51.72 176.563 51.72V53.72C180.015 53.72 183.049 53.2273 185.64 52.211L184.91 50.349ZM177.535 48.212C180.108 48.212 182.461 47.8248 184.581 47.0328L183.881 45.1592C182.018 45.8552 179.907 46.212 177.535 46.212V48.212ZM184.591 47.0291C186.729 46.2049 188.467 44.9776 189.768 43.3321L188.199 42.0919C187.147 43.4224 185.718 44.4511 183.871 45.1629L184.591 47.0291ZM189.768 43.3321C191.106 41.6394 191.747 39.5624 191.747 37.168H189.747C189.747 39.1896 189.213 40.8086 188.199 42.0919L189.768 43.3321ZM191.747 37.168V32.344H189.747V37.168H191.747ZM190.449 31.3895C188.971 31.8514 187.245 32.2375 185.266 32.5438L185.572 34.5202C187.625 34.2025 189.451 33.7966 191.045 33.2985L190.449 31.3895ZM185.278 32.5421C183.28 32.8275 181.221 33.0655 179.102 33.256L179.281 35.248C181.433 35.0545 183.527 34.8125 185.561 34.5219L185.278 32.5421ZM179.099 33.2563C175.43 33.5964 172.546 34.2474 170.531 35.2679L171.435 37.0521C173.116 36.2006 175.705 35.5796 179.284 35.2477L179.099 33.2563ZM170.527 35.2703C169.467 35.8143 168.63 36.5668 168.066 37.5392C167.505 38.5073 167.247 39.6335 167.247 40.876H169.247C169.247 39.9105 169.446 39.1467 169.796 38.5428C170.144 37.9432 170.676 37.4417 171.44 37.0497L170.527 35.2703ZM167.247 40.876C167.247 43.2696 168.146 45.1858 170.006 46.4541C171.796 47.6756 174.357 48.212 177.535 48.212V46.212C174.522 46.212 172.438 45.6924 171.133 44.8019C169.896 43.9582 169.247 42.7064 169.247 40.876H167.247ZM207.082 52H206.082V53H207.082V52ZM207.082 13.768V12.768H206.082V13.768H207.082ZM213.202 13.768H214.202V12.768H213.202V13.768ZM213.202 18.664H212.202V21.6075L213.995 19.2732L213.202 18.664ZM217.918 14.704L218.384 15.5892L218.392 15.5845L217.918 14.704ZM231.49 15.064L230.931 15.8927L230.931 15.8927L231.49 15.064ZM235.522 20.14L234.592 20.506L235.335 22.3959L236.38 20.6545L235.522 20.14ZM240.418 15.136L239.882 14.2919L239.882 14.2919L240.418 15.136ZM256.942 16.756L256.195 17.4204L256.199 17.4245L256.942 16.756ZM260.146 52V53H261.146V52H260.146ZM254.026 52H253.026V53H254.026V52ZM253.846 25.324L254.84 25.2136L254.84 25.2136L253.846 25.324ZM252.946 22.3L252.052 22.7472L252.056 22.7563L252.946 22.3ZM250.642 19.96L250.125 20.8157L250.136 20.8228L250.148 20.8295L250.642 19.96ZM240.49 20.824L241.143 21.5814L241.143 21.5814L240.49 20.824ZM237.538 25.216L238.487 25.5322L238.487 25.5322L237.538 25.216ZM236.674 52V53H237.674V52H236.674ZM230.59 52H229.59V53H230.59V52ZM230.374 25.468L229.38 25.5761L229.381 25.5881L229.383 25.6002L230.374 25.468ZM229.474 22.372L228.575 22.8104L228.58 22.8192L229.474 22.372ZM227.206 19.96L226.68 20.8103L226.689 20.8157L227.206 19.96ZM217.198 20.86L217.838 21.6283L217.846 21.6219L217.198 20.86ZM214.102 25.36L213.157 25.0324L213.154 25.0438L214.102 25.36ZM213.202 52V53H214.202V52H213.202ZM208.082 52V13.768H206.082V52H208.082ZM207.082 14.768H213.202V12.768H207.082V14.768ZM212.202 13.768V18.664H214.202V13.768H212.202ZM213.995 19.2732C215.178 17.7333 216.638 16.5068 218.383 15.5892L217.453 13.8188C215.455 14.8692 213.77 16.2827 212.409 18.0548L213.995 19.2732ZM218.392 15.5845C220.104 14.663 222.05 14.192 224.254 14.192V12.192C221.755 12.192 219.477 12.729 217.444 13.8235L218.392 15.5845ZM224.254 14.192C227.096 14.192 229.295 14.7881 230.931 15.8927L232.05 14.2353C229.99 12.8439 227.364 12.192 224.254 12.192V14.192ZM230.931 15.8927C232.606 17.0241 233.823 18.5523 234.592 20.506L236.453 19.774C235.541 17.4557 234.071 15.5999 232.05 14.2353L230.931 15.8927ZM236.38 20.6545C237.522 18.75 239.044 17.1941 240.954 15.9801L239.882 14.2919C237.713 15.6699 235.97 17.45 234.665 19.6255L236.38 20.6545ZM240.954 15.9801C242.814 14.7989 245.01 14.192 247.582 14.192V12.192C244.682 12.192 242.103 12.8811 239.882 14.2919L240.954 15.9801ZM247.582 14.192C251.515 14.192 254.325 15.3173 256.195 17.4204L257.69 16.0916C255.335 13.4427 251.905 12.192 247.582 12.192V14.192ZM256.199 17.4245C258.131 19.5736 259.146 22.5056 259.146 26.332H261.146C261.146 22.1424 260.026 18.6903 257.686 16.0874L256.199 17.4245ZM259.146 26.332V52H261.146V26.332H259.146ZM260.146 51H254.026V53H260.146V51ZM255.026 52V28.348H253.026V52H255.026ZM255.026 28.348C255.026 27.3698 254.964 26.3246 254.84 25.2136L252.852 25.4344C252.969 26.4834 253.026 27.4542 253.026 28.348H255.026ZM254.84 25.2136C254.707 24.017 254.373 22.8913 253.836 21.8437L252.056 22.7563C252.479 23.5807 252.745 24.471 252.852 25.4344L254.84 25.2136ZM253.841 21.8528C253.261 20.6928 252.341 19.7752 251.136 19.0905L250.148 20.8295C251.055 21.3448 251.672 21.9872 252.052 22.7472L253.841 21.8528ZM251.16 19.1043C249.908 18.3474 248.248 18.024 246.286 18.024V20.024C248.068 20.024 249.313 20.3246 250.125 20.8157L251.16 19.1043ZM246.286 18.024C243.658 18.024 241.465 18.6631 239.837 20.0666L241.143 21.5814C242.299 20.5849 243.971 20.024 246.286 20.024V18.024ZM239.837 20.0666C238.31 21.3832 237.223 22.9991 236.59 24.8998L238.487 25.5322C239.005 23.9769 239.886 22.6648 241.143 21.5814L239.837 20.0666ZM236.59 24.8998C235.984 26.7164 235.674 28.4913 235.674 30.22H237.674C237.674 28.7327 237.94 27.1716 238.487 25.5322L236.59 24.8998ZM235.674 30.22V52H237.674V30.22H235.674ZM236.674 51H230.59V53H236.674V51ZM231.59 52V28.492H229.59V52H231.59ZM231.59 28.492C231.59 27.5053 231.514 26.4527 231.365 25.3358L229.383 25.6002C229.522 26.6433 229.59 27.6067 229.59 28.492H231.59ZM231.368 25.3599C231.236 24.142 230.904 22.9947 230.369 21.9248L228.58 22.8192C229.005 23.6693 229.272 24.586 229.38 25.5761L231.368 25.3599ZM230.373 21.9336C229.8 20.7593 228.903 19.8173 227.724 19.1043L226.689 20.8157C227.574 21.3507 228.188 22.0167 228.575 22.8104L230.373 21.9336ZM227.733 19.1097C226.505 18.3496 224.891 18.024 222.994 18.024V20.024C224.698 20.024 225.892 20.3224 226.68 20.8103L227.733 19.1097ZM222.994 18.024C220.402 18.024 218.218 18.6811 216.551 20.0981L217.846 21.6219C219.059 20.5909 220.739 20.024 222.994 20.024V18.024ZM216.558 20.0918C214.976 21.4102 213.84 23.0635 213.157 25.0325L215.047 25.6875C215.613 24.0565 216.541 22.7098 217.838 21.6282L216.558 20.0918ZM213.154 25.0438C212.521 26.9402 212.202 28.8468 212.202 30.76H214.202C214.202 29.0732 214.483 27.3798 215.051 25.6762L213.154 25.0438ZM212.202 30.76V52H214.202V30.76H212.202ZM213.202 51H207.082V53H213.202V51ZM271.541 51.748L270.824 52.4445L270.834 52.4552L270.845 52.4656L271.541 51.748ZM271.541 45.808L270.834 45.1009L270.829 45.1062L270.824 45.1115L271.541 45.808ZM277.481 45.808L276.774 46.5151L276.774 46.5151L277.481 45.808ZM277.481 51.748L278.178 52.4656L278.183 52.4604L278.188 52.4551L277.481 51.748ZM274.529 51.936C273.604 51.936 272.86 51.6345 272.238 51.0304L270.845 52.4656C271.854 53.4455 273.103 53.936 274.529 53.936V51.936ZM272.259 51.0515C271.655 50.4291 271.353 49.6858 271.353 48.76H269.353C269.353 50.1862 269.844 51.4349 270.824 52.4445L272.259 51.0515ZM271.353 48.76C271.353 47.8643 271.651 47.1312 272.259 46.5045L270.824 45.1115C269.848 46.1168 269.353 47.3517 269.353 48.76H271.353ZM272.248 46.5151C272.873 45.8906 273.613 45.584 274.529 45.584V43.584C273.094 43.584 271.842 44.0934 270.834 45.1009L272.248 46.5151ZM274.529 45.584C275.416 45.584 276.145 45.8863 276.774 46.5151L278.188 45.1009C277.185 44.0977 275.947 43.584 274.529 43.584V45.584ZM276.774 46.5151C277.403 47.1439 277.705 47.8737 277.705 48.76H279.705C279.705 47.3423 279.192 46.1041 278.188 45.1009L276.774 46.5151ZM277.705 48.76C277.705 49.6765 277.399 50.4164 276.774 51.0409L278.188 52.4551C279.196 51.4476 279.705 50.1955 279.705 48.76H277.705ZM276.785 51.0304C276.158 51.6387 275.425 51.936 274.529 51.936V53.936C275.938 53.936 277.173 53.4413 278.178 52.4656L276.785 51.0304Z" fill="black"/>
</svg>
